<svg height="474pt" viewBox="-95 0 474 474.476" width="474pt" xmlns="http://www.w3.org/2000/svg"><path d="m7.25 64.398438h231.554688v372.191406h-231.554688zm0 0" fill="#4e7693"/><g fill="#2c5168"><path d="m38.351562 255.808594h47.679688v24.132812h-47.679688zm0 0"/><path d="m104.066406 255.808594h47.679688v24.132812h-47.679688zm0 0"/><path d="m169.78125 255.808594h47.679688v24.132812h-47.679688zm0 0"/><path d="m38.351562 299.246094h47.679688v24.132812h-47.679688zm0 0"/><path d="m104.066406 299.246094h47.679688v24.132812h-47.679688zm0 0"/><path d="m169.78125 299.246094h47.679688v24.132812h-47.679688zm0 0"/><path d="m38.351562 342.6875h47.679688v24.132812h-47.679688zm0 0"/><path d="m104.066406 342.6875h47.679688v24.132812h-47.679688zm0 0"/><path d="m169.78125 342.6875h47.679688v24.132812h-47.679688zm0 0"/><path d="m38.351562 386.132812h47.679688v24.132813h-47.679688zm0 0"/><path d="m104.066406 386.132812h47.679688v24.132813h-47.679688zm0 0"/><path d="m169.78125 386.132812h47.679688v24.132813h-47.679688zm0 0"/><path d="m57.816406 64.398438h143.769532v28.382812h-143.769532zm0 0"/><path d="m229.875 64.398438h8.925781v372.191406h-8.925781zm0 0"/></g><path d="m16.179688 436.59375h213.695312v30.886719h-213.695312zm0 0" fill="#43a3f9"/><path d="m219.582031 436.59375h-203.402343v8.789062h203.402343v22.097657h10.292969v-30.886719zm0 0" fill="#288aea"/><path d="m33.46875 117.679688h179.113281v110.816406h-179.113281zm0 0" fill="#2c5168"/><path d="m57.308594 137.597656h131.433594v70.976563h-131.433594zm0 0" fill="#43a3f9"/><path d="m51.140625 7h143.769531v85.78125h-143.769531zm0 0" fill="#e3f4ff"/><path d="m180.765625 7h14.144531v85.78125h-14.144531zm0 0" fill="#bbd8ef"/><path d="m33.46875 255.808594h47.679688v24.132812h-47.679688zm0 0" fill="#ffdf46"/><path d="m99.1875 255.808594h47.679688v24.132812h-47.679688zm0 0" fill="#9be058"/><path d="m164.902344 255.808594h47.679687v24.132812h-47.679687zm0 0" fill="#fc3e81"/><path d="m33.46875 299.246094h47.679688v24.132812h-47.679688zm0 0" fill="#ffdf46"/><path d="m99.1875 299.246094h47.679688v24.132812h-47.679688zm0 0" fill="#ffdf46"/><path d="m164.902344 299.246094h47.679687v24.132812h-47.679687zm0 0" fill="#ffdf46"/><path d="m33.46875 342.6875h47.679688v24.132812h-47.679688zm0 0" fill="#ffdf46"/><path d="m99.1875 342.6875h47.679688v24.132812h-47.679688zm0 0" fill="#ffdf46"/><path d="m164.902344 342.6875h47.679687v24.132812h-47.679687zm0 0" fill="#ffdf46"/><path d="m33.46875 386.132812h47.679688v24.132813h-47.679688zm0 0" fill="#ffdf46"/><path d="m99.1875 386.132812h47.679688v24.132813h-47.679688zm0 0" fill="#ffdf46"/><path d="m164.902344 386.132812h47.679687v24.132813h-47.679687zm0 0" fill="#ffdf46"/><path d="m205.160156 386.132812h7.421875v24.132813h-7.421875zm0 0" fill="#ffc32c"/><path d="m205.160156 342.6875h7.421875v24.132812h-7.421875zm0 0" fill="#ffc32c"/><path d="m205.160156 299.246094h7.421875v24.132812h-7.421875zm0 0" fill="#ffc32c"/><path d="m205.160156 255.808594h7.421875v24.132812h-7.421875zm0 0" fill="#e02057"/><path d="m139.445312 386.132812h7.421876v24.132813h-7.421876zm0 0" fill="#ffc32c"/><path d="m139.445312 342.6875h7.421876v24.132812h-7.421876zm0 0" fill="#ffc32c"/><path d="m139.445312 299.246094h7.421876v24.132812h-7.421876zm0 0" fill="#ffc32c"/><path d="m139.445312 255.808594h7.421876v24.132812h-7.421876zm0 0" fill="#77b734"/><path d="m73.730469 386.132812h7.417969v24.132813h-7.417969zm0 0" fill="#ffc32c"/><path d="m73.730469 342.6875h7.417969v24.132812h-7.417969zm0 0" fill="#ffc32c"/><path d="m73.730469 299.246094h7.417969v24.132812h-7.417969zm0 0" fill="#ffc32c"/><path d="m73.730469 255.808594h7.417969v24.132812h-7.417969zm0 0" fill="#ffc32c"/><path d="m238.800781 98.066406h38.824219v282.59375h-38.824219zm0 0" fill="#43a3f9"/><path d="m269.289062 98.066406h8.335938v282.59375h-8.335938zm0 0" fill="#288aea"/><path d="m188.742188 204.289062v-15.546874l-105.335938-51.144532h-26.097656v2.871094zm0 0" fill="#e3f4ff"/><path d="m129.703125 208.574219-72.394531-35.117188v10.300781l51.164062 24.816407zm0 0" fill="#e3f4ff"/><path d="m128.140625 137.597656h-21.222656l81.824219 39.707032v-10.300782zm0 0" fill="#e3f4ff"/><path d="m219.582031 117.675781c0-3.867187-3.132812-7-7-7h-179.113281c-3.863281 0-7 3.132813-7 7v110.800781c0 3.867188 3.136719 7 7 7h179.113281c3.867188 0 7-3.132812 7-7zm-14 103.816407h-165.113281v-96.800782h165.113281zm-155.273437-12.917969v-70.976563c0-3.867187 3.136718-7 7-7h16.292968c3.867188 0 7 3.132813 7 7 0 3.863282-3.132812 7-7 7h-9.292968v56.976563h117.433594v-56.976563h-82.554688c-3.867188 0-7-3.136718-7-7 0-3.867187 3.132812-7 7-7h89.554688c3.867187 0 7 3.132813 7 7v70.976563c0 3.867187-3.132813 7-7 7h-131.433594c-3.863282 0-7-3.132813-7-7zm77.328125-194.574219c-3.863281 0-7-3.132812-7-7s3.136719-7 7-7h25.203125c3.863281 0 7 3.132812 7 7s-3.136719 7-7 7zm-120.398438 307.160156c-3.867187 0-7 3.132813-7 7v108.429688c0 3.863281 3.132813 7 7 7h1.925781v23.886718c0 3.867188 3.136719 7 7 7h213.710938c3.863281 0 7-3.132812 7-7v-23.886718h1.925781c3.867188 0 7-3.136719 7-7v-48.929688h31.835938c3.867187 0 7-3.132812 7-7v-230.496094c0-3.867187-3.132813-7-7-7-3.863281 0-7 3.132813-7 7v223.496094h-5.421875v-242.480468c0-3.867188-3.136719-7-7-7-3.867188 0-7 3.132812-7 7v242.480468h-5.414063v-268.597656h24.824219v16.472656c0 3.867188 3.136719 7 7 7 3.867188 0 7-3.132812 7-7v-23.472656c0-3.863281-3.132812-7-7-7h-31.824219v-26.664062c0-3.863282-3.132812-7-7-7h-36.890625v-50.398438c0-3.867188-3.132812-7-7-7h-18.53125c-3.867187 0-7 3.132812-7 7s3.132813 7 7 7h11.53125v71.78125h-129.769531v-71.78125h41.046875c3.863281 0 7-3.132812 7-7s-3.136719-7-7-7h-48.046875c-3.863281 0-7 3.132812-7 7v50.398438h-36.902344c-3.867187 0-7 3.136718-7 7v234.839843c0 3.867188 3.132813 7 7 7 3.867188 0 7-3.132812 7-7v-227.839843h29.894531v14.382812h-10.664062c-3.863281 0-7 3.132812-7 7 0 3.863281 3.136719 7 7 7h179.113281c3.867188 0 7-3.136719 7-7 0-3.867188-3.132812-7-7-7h-10.671875v-14.382812h29.894532v358.195312h-217.554688v-101.433594c0-1.859375-.738281-3.640625-2.054688-4.953125-1.316406-1.3125-3.097656-2.050781-4.957031-2.046875zm215.625 122.429688v16.886718h-199.683593v-16.886718zm-196.402343-163.65625c0 3.863281 3.136718 7 7 7h47.679687c3.867187 0 7-3.136719 7-7v-24.125c0-3.867188-3.132813-7-7-7h-47.671875c-3.863281 0-7 3.132812-7 7zm14-17.128906h33.679687v10.128906h-33.679687zm113.398437-7c0-3.867188-3.136719-7-7-7h-47.671875c-3.867188 0-7 3.132812-7 7v24.128906c0 3.863281 3.132812 7 7 7h47.679688c3.863281 0 7-3.136719 7-7zm-14 17.128906h-33.679687v-10.125h33.679687zm79.714844-17.128906c0-3.867188-3.132813-7-7-7h-47.671875c-3.867188 0-7 3.132812-7 7v24.128906c0 3.863281 3.132812 7 7 7h47.679687c3.867188 0 7-3.136719 7-7zm-14 17.128906h-33.679688v-10.125h33.679688zm-179.105469 50.445312c0 3.867188 3.136719 7 7 7h47.679688c3.867187 0 7-3.132812 7-7v-24.140625c0-3.863281-3.132813-7-7-7h-47.679688c-3.863281 0-7 3.136719-7 7zm14-17.132812h33.679688v10.132812h-33.679688zm113.398438-7.007813c0-3.863281-3.136719-7-7-7h-47.679688c-3.867188 0-7 3.136719-7 7v24.132813c0 3.867187 3.132812 7 7 7h47.679688c3.863281 0 7-3.132813 7-7zm-14 17.132813h-33.679688v-10.125h33.679688zm79.714843-17.132813c0-3.863281-3.132812-7-7-7h-47.679687c-3.867188 0-7 3.136719-7 7v24.132813c0 3.867187 3.132812 7 7 7h47.679687c3.867188 0 7-3.132813 7-7zm-14 17.132813h-33.679687v-10.125h33.679687zm-179.113281 50.46875c0 3.867187 3.136719 7 7 7h47.679688c3.867187 0 7-3.132813 7-7v-24.152344c0-3.867188-3.132813-7-7-7h-47.679688c-3.863281 0-7 3.132812-7 7zm14-17.132813h33.679688v10.132813h-33.679688zm113.398438-7c0-3.863281-3.136719-7-7-7h-47.679688c-3.867188 0-7 3.136719-7 7v24.132813c0 3.867187 3.132812 7 7 7h47.679688c3.863281 0 7-3.132813 7-7zm-14 17.132813h-33.679688v-10.152344h33.679688zm79.714843-17.132813c0-3.863281-3.132812-7-7-7h-47.679687c-3.867188 0-7 3.136719-7 7v24.132813c0 3.867187 3.132812 7 7 7h47.679687c3.867188 0 7-3.132813 7-7zm-14 17.132813h-33.679687v-10.152344h33.679687zm-179.113281 50.441406c0 3.863281 3.136719 7 7 7h47.679688c3.867187 0 7-3.136719 7-7v-24.132812c0-3.867188-3.132813-7-7-7h-47.679688c-3.863281 0-7 3.132812-7 7zm14-17.132812h33.679688v10.132812h-33.679688zm106.402344-14h-47.683594c-3.867188 0-7 3.132812-7 7v24.132812c0 3.863281 3.132812 7 7 7h47.679688c3.863281 0 7-3.136719 7-7v-24.132812c.003906-1.859376-.734376-3.644532-2.046876-4.960938s-3.09375-2.054688-4.953124-2.054688zm-7 24.132812h-33.679688v-10.132812h33.679688zm72.714844-24.132812h-47.683594c-3.867188 0-7 3.132812-7 7v24.132812c0 3.863281 3.132812 7 7 7h47.679687c3.867188 0 7-3.136719 7-7v-24.132812c.003907-1.859376-.730469-3.644532-2.042969-4.960938-1.316406-1.316406-3.097656-2.054688-4.957031-2.054688zm-7 24.132812h-33.679688v-10.132812h33.679688zm0 0" fill="#202e35"/></svg>