<svg id="Layer_4" enable-background="new 0 0 24 24" height="512" viewBox="0 0 24 24" width="512" xmlns="http://www.w3.org/2000/svg"><path d="m5 0h-4c-.552 0-1 .448-1 1v4c0 .552.448 1 1 1h4c.552 0 1-.448 1-1v-4c0-.552-.448-1-1-1z" fill="#42a5f5"/><path d="m5 9h-4c-.552 0-1 .448-1 1v4c0 .552.448 1 1 1h4c.552 0 1-.448 1-1v-4c0-.552-.448-1-1-1z" fill="#90caf9"/><path d="m5 18h-4c-.552 0-1 .448-1 1v4c0 .552.448 1 1 1h4c.552 0 1-.448 1-1v-4c0-.552-.448-1-1-1z" fill="#90caf9"/><path d="m23 0h-4c-.552 0-1 .448-1 1v4c0 .552.448 1 1 1h4c.552 0 1-.448 1-1v-4c0-.552-.448-1-1-1z" fill="#42a5f5"/><path d="m23 9h-4c-.552 0-1 .448-1 1v4c0 .552.448 1 1 1h4c.552 0 1-.448 1-1v-4c0-.552-.448-1-1-1z" fill="#90caf9"/><path d="m23 18h-4c-.552 0-1 .448-1 1v4c0 .552.448 1 1 1h4c.552 0 1-.448 1-1v-4c0-.552-.448-1-1-1z" fill="#90caf9"/><path d="m14 0h-4c-.552 0-1 .447-1 1v4c0 .553.448 1 1 1h4c.552 0 1-.447 1-1v-4c0-.553-.448-1-1-1z" fill="#42a5f5"/><path d="m14 9h-4c-.552 0-1 .447-1 1v4c0 .553.448 1 1 1h4c.552 0 1-.447 1-1v-4c0-.553-.448-1-1-1z" fill="#90caf9"/><path d="m14 18h-4c-.552 0-1 .447-1 1v4c0 .553.448 1 1 1h4c.552 0 1-.447 1-1v-4c0-.553-.448-1-1-1z" fill="#90caf9"/><path d="m12 0h-2c-.552 0-1 .447-1 1v4c0 .553.448 1 1 1h2z" fill="#3990d5"/><path d="m12 9h-2c-.552 0-1 .447-1 1v4c0 .553.448 1 1 1h2z" fill="#7db0d9"/><path d="m12 18h-2c-.552 0-1 .447-1 1v4c0 .553.448 1 1 1h2z" fill="#7db0d9"/><path d="m21 0h-2c-.552 0-1 .447-1 1v4c0 .553.448 1 1 1h2z" fill="#3990d5"/><path d="m21 9h-2c-.552 0-1 .447-1 1v4c0 .553.448 1 1 1h2z" fill="#7db0d9"/><path d="m21 18h-2c-.552 0-1 .447-1 1v4c0 .553.448 1 1 1h2z" fill="#7db0d9"/><path d="m3 0h-2c-.552 0-1 .447-1 1v4c0 .553.448 1 1 1h2z" fill="#3990d5"/><g fill="#7db0d9"><path d="m3 9h-2c-.552 0-1 .447-1 1v4c0 .553.448 1 1 1h2z"/><path d="m3 18h-2c-.552 0-1 .447-1 1v4c0 .553.448 1 1 1h2z"/></g></svg>